<svg width="38" height="19" viewBox="0 0 38 19" fill="none" xmlns="http://www.w3.org/2000/svg">
<path d="M37.5211 8.43838C34.183 5.91785 31.0604 3.18109 27.8742 0.487763C27.1672 -0.109788 26.1277 -0.206323 25.4227 0.468456C24.7634 1.09979 24.7277 2.21188 25.4029 2.85094C27.2198 4.57891 29.1659 6.19587 31.1616 7.74719C30.3077 7.81155 29.4532 7.87268 28.598 7.9306C26.3521 8.07637 24.1051 8.18835 21.8572 8.28296C17.3356 8.47603 12.812 8.58318 8.28935 8.73184C5.75648 8.81486 3.18489 8.8641 0.686774 9.30237C-0.421295 9.49544 -0.0717963 10.983 0.907196 11.0805C3.09851 11.2987 5.3216 11.2572 7.52284 11.263C9.77472 11.2678 12.0266 11.2881 14.2745 11.3093C18.7505 11.3537 23.2235 11.4493 27.6994 11.3972C28.9306 11.383 30.1625 11.3582 31.395 11.3228C31.5757 11.317 31.7683 11.317 31.9679 11.3228C31.4118 11.8428 30.8575 12.3645 30.3048 12.8877L27.9615 15.108C27.1434 15.8803 26.2875 16.6207 25.5975 17.5078C24.959 18.3284 26.1694 19.3507 26.9965 18.8902C27.9893 18.339 28.8532 17.56 29.7438 16.8697L32.3164 14.8753C34.0609 13.5238 35.8064 12.1579 37.4973 10.7427C38.1228 10.2175 38.2032 8.95484 37.5211 8.43838Z" fill="#3092E5"/>
</svg>
