<svg width="72" height="78" viewBox="0 0 72 78" fill="none" xmlns="http://www.w3.org/2000/svg">
<path d="M13.1886 33.5856C13.2095 21.2884 17.8106 14.3598 25.1391 10.7443C30.3016 8.19756 36.3102 7.39203 40.9685 7.6208C60.1411 8.56223 71.7161 30.8266 60.8029 47.637C53.3546 59.1105 34.1385 62.5676 23.8822 52.8062C21.096 55.3203 16.867 54.7235 14.5574 51.886C12.528 49.3927 12.6382 45.5373 16.1109 44.3922C14.8989 42.3239 13.1796 38.8904 13.1886 33.5856Z" stroke="white" stroke-width="4" stroke-miterlimit="1.5" stroke-linecap="round" stroke-linejoin="round"/>
<path d="M9.24764 58.7789C14.8215 57.549 16.813 65.085 10.8946 66.382C5.26769 67.6148 1.87658 59.8187 7.30893 58.9019" stroke="white" stroke-width="4" stroke-miterlimit="1.5" stroke-linecap="round" stroke-linejoin="round"/>
</svg>
