<svg width="40" height="48" viewBox="0 0 40 48" fill="none" xmlns="http://www.w3.org/2000/svg">
<path d="M27 39H1" stroke="#4CD692" stroke-width="2" stroke-linecap="round" stroke-linejoin="round"/>
<path d="M27 30V43C27 44.0608 26.5786 45.0782 25.8284 45.8284C25.0782 46.5786 24.0608 47 23 47H5C3.93914 47 2.92172 46.5786 2.17158 45.8284C1.42142 45.0782 1 44.0608 1 43V5C1 3.93914 1.42142 2.92172 2.17158 2.17158C2.92172 1.42143 3.93914 1 5 1H15" stroke="#4CD692" stroke-width="2" stroke-linecap="round" stroke-linejoin="round"/>
<path d="M27 25C33.6274 25 39 19.6274 39 13C39 6.37258 33.6274 1 27 1C20.3726 1 15 6.37258 15 13C15 19.6274 20.3726 25 27 25Z" stroke="#4CD692" stroke-width="2" stroke-linecap="round" stroke-linejoin="round"/>
<path d="M14 43.5C13.7239 43.5 13.5 43.2762 13.5 43C13.5 42.7238 13.7239 42.5 14 42.5" stroke="#4CD692" stroke-width="2"/>
<path d="M14 43.5C14.2761 43.5 14.5 43.2762 14.5 43C14.5 42.7238 14.2761 42.5 14 42.5" stroke="#4CD692" stroke-width="2"/>
<path d="M27.6016 19.1719C28.8151 19.1719 29.8698 18.888 30.7656 18.3203C31.0312 18.1484 31.1641 17.9297 31.1641 17.6641C31.1641 17.5443 31.1354 17.4323 31.0781 17.3281C31.0208 17.224 30.9427 17.1406 30.8438 17.0781C30.7448 17.0104 30.638 16.9766 30.5234 16.9766C30.4193 16.9766 30.3151 17.0052 30.2109 17.0625C29.9401 17.2083 29.7135 17.3229 29.5312 17.4062C29.3542 17.4896 29.1146 17.5703 28.8125 17.6484C28.5156 17.7214 28.2109 17.7578 27.8984 17.7578C26.9818 17.7578 26.2344 17.5208 25.6562 17.0469C25.0833 16.5729 24.6875 15.9167 24.4688 15.0781H28.5078C28.6432 15.0781 28.7474 15.0339 28.8203 14.9453C28.8932 14.8568 28.9297 14.75 28.9297 14.625C28.9297 14.4948 28.8906 14.3828 28.8125 14.2891C28.7344 14.1901 28.6276 14.1406 28.4922 14.1406H24.3047C24.2786 13.901 24.2656 13.651 24.2656 13.3906C24.2656 13.2708 24.2682 13.151 24.2734 13.0312H28.5078C28.6432 13.0312 28.7474 12.987 28.8203 12.8984C28.8932 12.8099 28.9297 12.7031 28.9297 12.5781C28.9297 12.4479 28.8906 12.3359 28.8125 12.2422C28.7344 12.1432 28.6276 12.0938 28.4922 12.0938H24.375C24.4635 11.625 24.599 11.2057 24.7812 10.8359C24.9688 10.4609 25.2031 10.1354 25.4844 9.85938C25.7656 9.57812 26.1042 9.36458 26.5 9.21875C26.901 9.06771 27.3438 8.99219 27.8281 8.99219C28.0625 8.99219 28.2839 9.00521 28.4922 9.03125C28.7005 9.05729 28.8906 9.09896 29.0625 9.15625C29.2344 9.20833 29.3698 9.2526 29.4688 9.28906C29.5677 9.32552 29.6875 9.38021 29.8281 9.45312C29.9688 9.52083 30.0495 9.5599 30.0703 9.57031C30.1536 9.60677 30.2396 9.625 30.3281 9.625C30.5104 9.625 30.6693 9.55208 30.8047 9.40625C30.9453 9.26042 31.0156 9.09375 31.0156 8.90625C31.0156 8.64583 30.8776 8.44271 30.6016 8.29688C29.7109 7.81771 28.7656 7.57812 27.7656 7.57812C27.0729 7.57812 26.4245 7.6875 25.8203 7.90625C25.2214 8.125 24.6979 8.43229 24.25 8.82812C23.8073 9.22396 23.4349 9.70052 23.1328 10.2578C22.8359 10.8099 22.6276 11.4219 22.5078 12.0938H21.5C21.375 12.0938 21.276 12.1406 21.2031 12.2344C21.1354 12.3281 21.1016 12.4401 21.1016 12.5703C21.1016 12.6953 21.1354 12.8047 21.2031 12.8984C21.276 12.987 21.375 13.0312 21.5 13.0312H22.3984C22.3932 13.1562 22.3906 13.2839 22.3906 13.4141C22.3906 13.6589 22.401 13.901 22.4219 14.1406H21.5C21.375 14.1406 21.276 14.1875 21.2031 14.2812C21.1354 14.375 21.1016 14.487 21.1016 14.6172C21.1016 14.7422 21.1354 14.8516 21.2031 14.9453C21.276 15.0339 21.375 15.0781 21.5 15.0781H22.5703C22.7109 15.6875 22.9297 16.2422 23.2266 16.7422C23.5234 17.2422 23.8828 17.6745 24.3047 18.0391C24.7266 18.3984 25.2188 18.6771 25.7812 18.875C26.3438 19.0729 26.9505 19.1719 27.6016 19.1719Z" fill="#4CD692"/>
</svg>
