<svg width="29" height="29" viewBox="0 0 29 29" fill="none" xmlns="http://www.w3.org/2000/svg">
<path d="M22.115 10.9863C21.9867 8.58905 21.0423 6.30783 19.4385 4.52148" stroke="#4CD692" stroke-width="1.3" stroke-linecap="round" stroke-linejoin="round"/>
<path d="M1 13.9131V17.4349C0.999438 19.5129 1.61167 21.5449 2.76009 23.2767C3.90852 25.0085 5.54215 26.3633 7.45658 27.1714" stroke="#4CD692" stroke-width="1.3" stroke-linecap="round" stroke-linejoin="round"/>
<path d="M16.8472 2.41543C15.2841 1.51304 13.516 1.0261 11.7114 1.00102C9.90679 0.975942 8.12582 1.41357 6.53834 2.27217C4.95086 3.13077 3.60978 4.38172 2.643 5.90573C1.67621 7.42975 1.11595 9.17602 1.01562 10.978" stroke="#4CD692" stroke-width="1.3" stroke-linecap="round" stroke-linejoin="round"/>
<path d="M8.63086 5.16011C9.70155 4.66934 10.8782 4.45491 12.0532 4.53642C13.2282 4.61793 14.364 4.99279 15.3566 5.6267C16.3493 6.26061 17.1672 7.13332 17.7354 8.165C18.3036 9.19667 18.604 10.3544 18.6092 11.5322" stroke="#4CD692" stroke-width="1.3" stroke-linecap="round" stroke-linejoin="round"/>
<path d="M12.152 24.4545C11.9595 24.4698 11.7646 24.478 11.565 24.478C9.69697 24.478 7.90542 23.7359 6.5845 22.415C5.26358 21.0941 4.52149 19.3025 4.52149 17.4345V11.5648C4.51899 9.83179 5.15794 8.15914 6.31525 6.86914" stroke="#4CD692" stroke-width="1.3" stroke-linecap="round" stroke-linejoin="round"/>
<path d="M15.0875 13.3855V11.5647C15.0875 10.6307 14.7164 9.73493 14.056 9.07447C13.3955 8.41401 12.4997 8.04297 11.5657 8.04297C10.6317 8.04297 9.73591 8.41401 9.07545 9.07447C8.41499 9.73493 8.04395 10.6307 8.04395 11.5647V15.0865" stroke="#4CD692" stroke-width="1.3" stroke-linecap="round" stroke-linejoin="round"/>
<path d="M8.04395 17.4346C8.04395 18.3686 8.41499 19.2644 9.07545 19.9248C9.73591 20.5853 10.6317 20.9563 11.5657 20.9563" stroke="#4CD692" stroke-width="1.3" stroke-linecap="round" stroke-linejoin="round"/>
<path d="M11.5654 11.5649V15.0867" stroke="#4CD692" stroke-width="1.3" stroke-linecap="round" stroke-linejoin="round"/>
<path d="M11.5654 17.4346V18.6085" stroke="#4CD692" stroke-width="1.3" stroke-linecap="round" stroke-linejoin="round"/>
<path d="M11.5654 28C12.3409 28.0006 13.1141 27.916 13.871 27.7476" stroke="#4CD692" stroke-width="1.3" stroke-linecap="round" stroke-linejoin="round"/>
<path d="M13.9131 20.9566C13.9131 22.8247 14.6552 24.6162 15.9761 25.9372C17.297 27.2581 19.0886 28.0002 20.9566 28.0002C22.8247 28.0002 24.6162 27.2581 25.9372 25.9372C27.2581 24.6162 28.0002 22.8247 28.0002 20.9566C28.0002 19.0886 27.2581 17.297 25.9372 15.9761C24.6162 14.6552 22.8247 13.9131 20.9566 13.9131C19.0886 13.9131 17.297 14.6552 15.9761 15.9761C14.6552 17.297 13.9131 19.0886 13.9131 20.9566Z" stroke="#4CD692" stroke-width="1.3" stroke-linecap="round" stroke-linejoin="round"/>
<path d="M24.0953 18.9092L20.6851 23.4558C20.6093 23.5565 20.5129 23.6399 20.4022 23.7002C20.2915 23.7604 20.1692 23.7963 20.0435 23.8053C19.9177 23.8143 19.7915 23.7963 19.6734 23.7524C19.5552 23.7085 19.4479 23.6398 19.3585 23.5509L17.5977 21.79" stroke="#4CD692" stroke-width="1.3" stroke-linecap="round" stroke-linejoin="round"/>
</svg>
