<svg width="24" height="29" viewBox="0 0 24 29" fill="none" xmlns="http://www.w3.org/2000/svg">
<path d="M7.55029 7.73047H15.887" stroke="#4CD692" stroke-width="1.3" stroke-linecap="round" stroke-linejoin="round"/>
<path d="M14.1002 7.73036C14.2458 7.72888 14.386 7.67516 14.4953 7.57897C14.6046 7.48279 14.6757 7.35055 14.6957 7.20633C14.949 5.64762 15.4306 4.13473 16.1249 2.71639C16.1879 2.60994 16.214 2.48558 16.1989 2.36276C16.1838 2.23993 16.1285 2.12557 16.0415 2.03755C15.9604 1.94522 15.8518 1.88146 15.7317 1.85572C15.6115 1.82998 15.4863 1.84362 15.3745 1.89463L12.8735 2.9665L12.2661 1.38251C12.225 1.27034 12.1503 1.1735 12.0524 1.10509C11.9544 1.03668 11.8378 1 11.7183 1C11.5988 1 11.4822 1.03668 11.3842 1.10509C11.2862 1.1735 11.2116 1.27034 11.1704 1.38251L10.5273 2.9665L8.02629 1.89463C7.91452 1.84362 7.7893 1.82998 7.66917 1.85572C7.54904 1.88146 7.4404 1.94522 7.35935 2.03755C7.27237 2.12557 7.21701 2.23993 7.20193 2.36276C7.18684 2.48558 7.21289 2.60994 7.27598 2.71639C7.97028 4.13473 8.45184 5.64762 8.70514 7.20633C8.72512 7.35055 8.79623 7.48279 8.90553 7.57897C9.01483 7.67516 9.15504 7.72888 9.30062 7.73036" stroke="#4CD692" stroke-width="1.3" stroke-linecap="round" stroke-linejoin="round"/>
<path d="M14.5891 13.6851H13.3981C12.1347 13.6851 10.923 14.187 10.0296 15.0804C9.13618 15.9738 8.63428 17.1855 8.63428 18.4489C8.63428 19.7124 9.13618 20.9241 10.0296 21.8175C10.923 22.7109 12.1347 23.2128 13.3981 23.2128H14.5891" stroke="#4CD692" stroke-width="1.3" stroke-linecap="round" stroke-linejoin="round"/>
<path d="M6.84814 17.2578H12.803" stroke="#4CD692" stroke-width="1.3" stroke-linecap="round" stroke-linejoin="round"/>
<path d="M6.84814 19.6401H11.612" stroke="#4CD692" stroke-width="1.3" stroke-linecap="round" stroke-linejoin="round"/>
<path d="M14.1006 7.73047C14.1006 7.73047 22.4374 14.2808 22.4374 20.0093C22.4374 25.9641 17.6735 27.9769 11.7187 27.9769C5.76386 27.9769 1 25.9284 1 20.0093C1 14.2808 9.33675 7.73047 9.33675 7.73047" stroke="#4CD692" stroke-width="1.3" stroke-linecap="round" stroke-linejoin="round"/>
</svg>
