<svg width="44" height="50" viewBox="0 0 44 50" fill="none" xmlns="http://www.w3.org/2000/svg">
<path d="M19.4125 23.05L13.3225 31.1854C13.198 31.3511 13.0421 31.4906 12.8637 31.596C12.6853 31.7014 12.4879 31.7706 12.2827 31.7997C12.0775 31.8288 11.8687 31.8171 11.668 31.7654C11.4673 31.7137 11.2788 31.6229 11.1133 31.4983C11.0546 31.4541 10.9991 31.4056 10.9474 31.3534L7.79736 28.2034" stroke="#4CD692" stroke-width="2" stroke-linecap="round" stroke-linejoin="round"/>
<path d="M26.2 30.925V42.5128C26.2 44.0344 25.5955 45.4937 24.5196 46.5696C23.4437 47.6456 21.9844 48.25 20.4628 48.25H6.7393C5.98588 48.2503 5.23978 48.1022 4.54361 47.8141C3.84743 47.526 3.21482 47.1037 2.68187 46.5711C2.14893 46.0386 1.7261 45.4063 1.43752 44.7103C1.14895 44.0143 1.00028 43.2683 1 42.5149V42.5149V9.88932C1.00056 8.36734 1.60541 6.90785 2.68162 5.83164C3.75782 4.75543 5.21731 4.15058 6.7393 4.15002H16.75" stroke="#4CD692" stroke-width="2" stroke-linecap="round" stroke-linejoin="round"/>
<path d="M31.9752 1C34.0638 1 36.0668 1.82969 37.5437 3.30653C39.0205 4.78338 39.8502 6.78642 39.8502 8.875V15.175C39.8502 16.0104 40.1821 16.8116 40.7728 17.4024C41.3635 17.9931 42.1648 18.325 43.0002 18.325H20.9502C21.7856 18.325 22.5868 17.9931 23.1776 17.4024C23.7683 16.8116 24.1002 16.0104 24.1002 15.175V8.875C24.1002 6.78642 24.9299 4.78338 26.4067 3.30653C27.8836 1.82969 29.8866 1 31.9752 1V1Z" stroke="#4CD692" stroke-width="2" stroke-linecap="round" stroke-linejoin="round"/>
<path d="M1 40.0327H26.2" stroke="#4CD692" stroke-width="2" stroke-linecap="round" stroke-linejoin="round"/>
<path d="M35.3897 18.9402C35.3897 19.8458 35.03 20.7143 34.3896 21.3547C33.7493 21.995 32.8808 22.3548 31.9751 22.3548C31.0695 22.3548 30.201 21.995 29.5607 21.3547C28.9203 20.7143 28.5605 19.8458 28.5605 18.9402" stroke="#4CD692" stroke-width="2" stroke-linecap="round" stroke-linejoin="round"/>
</svg>
