<svg width="17" height="29" viewBox="0 0 17 29" fill="none" xmlns="http://www.w3.org/2000/svg">
<path d="M13.6923 1H3.30769C2.03319 1 1 2.03319 1 3.30769V25.2308C1 26.5053 2.03319 27.5385 3.30769 27.5385H13.6923C14.9668 27.5385 16 26.5053 16 25.2308V3.30769C16 2.03319 14.9668 1 13.6923 1Z" stroke="#4CD692" stroke-width="1.3" stroke-linecap="round" stroke-linejoin="round"/>
<path d="M16 22.9229H1" stroke="#4CD692" stroke-width="1.3" stroke-linecap="round" stroke-linejoin="round"/>
<path d="M16 5.61523H1" stroke="#4CD692" stroke-width="1.3" stroke-linecap="round" stroke-linejoin="round"/>
<path d="M6.76904 3.30762H10.2306" stroke="#4CD692" stroke-width="1.3" stroke-linecap="round" stroke-linejoin="round"/>
<path d="M13.1153 9.65381L10.9461 15.6203C10.9056 15.7316 10.8319 15.8278 10.7348 15.8957C10.6378 15.9636 10.5222 16 10.4038 16H6.27417C6.16178 16.0001 6.05177 15.9674 5.95768 15.9059C5.8636 15.8444 5.78952 15.7568 5.74456 15.6538L4.50763 12.1923C4.46926 12.1043 4.45342 12.0082 4.46155 11.9126C4.4697 11.8169 4.50155 11.7249 4.55426 11.6447C4.60696 11.5645 4.67883 11.4987 4.76337 11.4533C4.84791 11.4079 4.94245 11.3842 5.0384 11.3846H12.4865" stroke="#4CD692" stroke-width="1.3" stroke-linecap="round" stroke-linejoin="round"/>
<path d="M7.0575 18.3079C6.89816 18.3079 6.76904 18.1788 6.76904 18.0194C6.76904 17.8601 6.89816 17.731 7.0575 17.731" stroke="#4CD692" stroke-width="1.3"/>
<path d="M7.05762 18.3079C7.21696 18.3079 7.34608 18.1788 7.34608 18.0194C7.34608 17.8601 7.21696 17.731 7.05762 17.731" stroke="#4CD692" stroke-width="1.3"/>
<path d="M8.49891 25.5193C8.33968 25.5193 8.21045 25.3902 8.21045 25.2308C8.21045 25.0715 8.33968 24.9424 8.49891 24.9424" stroke="#4CD692" stroke-width="1.3"/>
<path d="M8.49902 25.5193C8.65837 25.5193 8.78748 25.3902 8.78748 25.2308C8.78748 25.0715 8.65837 24.9424 8.49902 24.9424" stroke="#4CD692" stroke-width="1.3"/>
<path d="M9.94227 18.3079C9.78292 18.3079 9.65381 18.1788 9.65381 18.0194C9.65381 17.8601 9.78292 17.731 9.94227 17.731" stroke="#4CD692" stroke-width="1.3"/>
<path d="M9.94238 18.3079C10.1017 18.3079 10.2308 18.1788 10.2308 18.0194C10.2308 17.8601 10.1017 17.731 9.94238 17.731" stroke="#4CD692" stroke-width="1.3"/>
</svg>
