<svg width="41" height="48" viewBox="0 0 41 48" fill="none" xmlns="http://www.w3.org/2000/svg">
<path d="M28.5996 43.9333H32.6885C36.6425 43.9333 39.8441 41.7539 39.8441 37.8V31.6666" stroke="#4CD692" stroke-width="2" stroke-linecap="round" stroke-linejoin="round"/>
<path d="M22.4668 43.9334C22.4668 44.7467 22.7899 45.5267 23.365 46.1018C23.9401 46.6769 24.7201 47 25.5335 47C26.3468 47 27.1268 46.6769 27.7019 46.1018C28.277 45.5267 28.6001 44.7467 28.6001 43.9334C28.6001 43.12 28.277 42.34 27.7019 41.7649C27.1268 41.1898 26.3468 40.8667 25.5335 40.8667C24.7201 40.8667 23.9401 41.1898 23.365 41.7649C22.7899 42.34 22.4668 43.12 22.4668 43.9334V43.9334Z" stroke="#4CD692" stroke-width="2" stroke-linecap="round" stroke-linejoin="round"/>
<path d="M9.17778 35.7556H5.08889C4.00445 35.7556 2.96442 35.3248 2.19761 34.558C1.43079 33.7911 1 32.7511 1 31.6667V25.5333C1 24.4489 1.43079 23.4089 2.19761 22.6421C2.96442 21.8753 4.00445 21.4445 5.08889 21.4445H9.17778V35.7556Z" stroke="#4CD692" stroke-width="2" stroke-linecap="round" stroke-linejoin="round"/>
<path d="M31.667 35.7556H35.7559C36.8403 35.7556 37.8803 35.3248 38.6472 34.558C39.414 33.7911 39.8448 32.7511 39.8448 31.6667V25.5333C39.8448 24.4489 39.414 23.4089 38.6472 22.6421C37.8803 21.8753 36.8403 21.4445 35.7559 21.4445H31.667V35.7556Z" stroke="#4CD692" stroke-width="2" stroke-linecap="round" stroke-linejoin="round"/>
<path d="M1 25.5333V20.4222C1 15.2711 3.04626 10.331 6.68864 6.68864C10.331 3.04626 15.2711 1 20.4222 1C25.5733 1 30.5134 3.04626 34.1558 6.68864C37.7982 10.331 39.8444 15.2711 39.8444 20.4222V25.5333" stroke="#4CD692" stroke-width="2" stroke-linecap="round" stroke-linejoin="round"/>
</svg>
