<svg width="48" height="48" viewBox="0 0 48 48" fill="none" xmlns="http://www.w3.org/2000/svg">
<path d="M3.77344 34.9972H18.9774" stroke="#4CD692" stroke-width="2" stroke-linecap="round" stroke-linejoin="round"/>
<path d="M5.00195 10.9972H42.97" stroke="#4CD692" stroke-width="2" stroke-linecap="round" stroke-linejoin="round"/>
<path d="M21.978 22.9972H1" stroke="#4CD692" stroke-width="2" stroke-linecap="round" stroke-linejoin="round"/>
<path d="M22.7341 46.9651C18.2885 46.7201 14.0096 45.19 10.4166 42.5605C6.82367 39.931 4.07115 36.3152 2.4931 32.1519C0.915054 27.9886 0.579324 23.4567 1.52666 19.1063C2.47399 14.7559 4.66365 10.7739 7.82992 7.64372C10.9962 4.51349 15.0029 2.36956 19.3639 1.4721C23.7249 0.57464 28.2526 0.962234 32.3976 2.58785C36.5426 4.21346 40.1266 7.0072 42.7148 10.63C45.303 14.2529 46.784 18.549 46.9781 22.9971" stroke="#4CD692" stroke-width="2" stroke-linecap="round" stroke-linejoin="round"/>
<path d="M22.5167 1.04919C10.5167 14.0492 10.7347 30.9652 22.7347 46.9652" stroke="#4CD692" stroke-width="2" stroke-linecap="round" stroke-linejoin="round"/>
<path d="M25.4375 1.04919C29.9151 5.71572 32.8864 11.6206 33.9655 17.9972" stroke="#4CD692" stroke-width="2" stroke-linecap="round" stroke-linejoin="round"/>
<path d="M22.9785 34.9991C22.9785 38.1817 24.2428 41.234 26.4932 43.4844C28.7437 45.7349 31.7959 46.9991 34.9785 46.9991C38.1611 46.9991 41.2134 45.7349 43.4638 43.4844C45.7142 41.234 46.9785 38.1817 46.9785 34.9991C46.9785 31.8165 45.7142 28.7643 43.4638 26.5139C41.2134 24.2634 38.1611 22.9991 34.9785 22.9991C31.7959 22.9991 28.7437 24.2634 26.4932 26.5139C24.2428 28.7643 22.9785 31.8165 22.9785 34.9991V34.9991Z" stroke="#4CD692" stroke-width="2" stroke-linecap="round" stroke-linejoin="round"/>
<path d="M35.6016 41.1719C36.8151 41.1719 37.8698 40.888 38.7656 40.3203C39.0312 40.1484 39.1641 39.9297 39.1641 39.6641C39.1641 39.5443 39.1354 39.4323 39.0781 39.3281C39.0208 39.224 38.9427 39.1406 38.8438 39.0781C38.7448 39.0104 38.638 38.9766 38.5234 38.9766C38.4193 38.9766 38.3151 39.0052 38.2109 39.0625C37.9401 39.2083 37.7135 39.3229 37.5312 39.4062C37.3542 39.4896 37.1146 39.5703 36.8125 39.6484C36.5156 39.7214 36.2109 39.7578 35.8984 39.7578C34.9818 39.7578 34.2344 39.5208 33.6562 39.0469C33.0833 38.5729 32.6875 37.9167 32.4688 37.0781H36.5078C36.6432 37.0781 36.7474 37.0339 36.8203 36.9453C36.8932 36.8568 36.9297 36.75 36.9297 36.625C36.9297 36.4948 36.8906 36.3828 36.8125 36.2891C36.7344 36.1901 36.6276 36.1406 36.4922 36.1406H32.3047C32.2786 35.901 32.2656 35.651 32.2656 35.3906C32.2656 35.2708 32.2682 35.151 32.2734 35.0312H36.5078C36.6432 35.0312 36.7474 34.987 36.8203 34.8984C36.8932 34.8099 36.9297 34.7031 36.9297 34.5781C36.9297 34.4479 36.8906 34.3359 36.8125 34.2422C36.7344 34.1432 36.6276 34.0938 36.4922 34.0938H32.375C32.4635 33.625 32.599 33.2057 32.7812 32.8359C32.9688 32.4609 33.2031 32.1354 33.4844 31.8594C33.7656 31.5781 34.1042 31.3646 34.5 31.2188C34.901 31.0677 35.3438 30.9922 35.8281 30.9922C36.0625 30.9922 36.2839 31.0052 36.4922 31.0312C36.7005 31.0573 36.8906 31.099 37.0625 31.1562C37.2344 31.2083 37.3698 31.2526 37.4688 31.2891C37.5677 31.3255 37.6875 31.3802 37.8281 31.4531C37.9688 31.5208 38.0495 31.5599 38.0703 31.5703C38.1536 31.6068 38.2396 31.625 38.3281 31.625C38.5104 31.625 38.6693 31.5521 38.8047 31.4062C38.9453 31.2604 39.0156 31.0938 39.0156 30.9062C39.0156 30.6458 38.8776 30.4427 38.6016 30.2969C37.7109 29.8177 36.7656 29.5781 35.7656 29.5781C35.0729 29.5781 34.4245 29.6875 33.8203 29.9062C33.2214 30.125 32.6979 30.4323 32.25 30.8281C31.8073 31.224 31.4349 31.7005 31.1328 32.2578C30.8359 32.8099 30.6276 33.4219 30.5078 34.0938H29.5C29.375 34.0938 29.276 34.1406 29.2031 34.2344C29.1354 34.3281 29.1016 34.4401 29.1016 34.5703C29.1016 34.6953 29.1354 34.8047 29.2031 34.8984C29.276 34.987 29.375 35.0312 29.5 35.0312H30.3984C30.3932 35.1562 30.3906 35.2839 30.3906 35.4141C30.3906 35.6589 30.401 35.901 30.4219 36.1406H29.5C29.375 36.1406 29.276 36.1875 29.2031 36.2812C29.1354 36.375 29.1016 36.487 29.1016 36.6172C29.1016 36.7422 29.1354 36.8516 29.2031 36.9453C29.276 37.0339 29.375 37.0781 29.5 37.0781H30.5703C30.7109 37.6875 30.9297 38.2422 31.2266 38.7422C31.5234 39.2422 31.8828 39.6745 32.3047 40.0391C32.7266 40.3984 33.2188 40.6771 33.7812 40.875C34.3438 41.0729 34.9505 41.1719 35.6016 41.1719Z" fill="#4CD692"/>
</svg>
