<svg width="276" height="69" viewBox="0 0 276 69" fill="none" xmlns="http://www.w3.org/2000/svg">
<path d="M100.2 22.1576C103.849 22.1576 106.688 23.2726 108.715 25.5025C110.771 27.7324 111.799 30.918 111.799 35.0593V53H106.152V35.2765C106.152 32.5832 105.5 30.556 104.197 29.1949C102.923 27.8048 101.142 27.1098 98.8538 27.1098C96.3633 27.1098 94.3795 27.8482 92.9026 29.3252C91.4546 30.7732 90.7306 32.9452 90.7306 35.8412V53H85.0834V22.592H90.5568V26.4147C92.6709 23.5766 95.8854 22.1576 100.2 22.1576ZM133.904 53.4344C130.806 53.4344 128.011 52.7683 125.521 51.4362C123.03 50.075 121.075 48.2071 119.656 45.8324C118.237 43.4287 117.528 40.7499 117.528 37.796C117.528 34.8421 118.237 32.1778 119.656 29.803C121.075 27.3994 123.03 25.5314 125.521 24.1993C128.011 22.8382 130.806 22.1576 133.904 22.1576C137.003 22.1576 139.798 22.8382 142.288 24.1993C144.779 25.5314 146.734 27.3849 148.153 29.7596C149.572 32.1343 150.281 34.8131 150.281 37.796C150.281 40.7789 149.572 43.4577 148.153 45.8324C146.734 48.2071 144.779 50.075 142.288 51.4362C139.798 52.7683 137.003 53.4344 133.904 53.4344ZM133.904 48.4822C135.932 48.4822 137.756 48.0334 139.378 47.1356C141 46.2089 142.274 44.9346 143.201 43.3129C144.127 41.6622 144.591 39.8232 144.591 37.796C144.591 35.7688 144.127 33.9443 143.201 32.3226C142.274 30.6718 141 29.3976 139.378 28.4998C137.756 27.5731 135.932 27.1098 133.904 27.1098C131.877 27.1098 130.053 27.5731 128.431 28.4998C126.809 29.3976 125.535 30.6718 124.608 32.3226C123.682 33.9443 123.218 35.7688 123.218 37.796C123.218 39.8232 123.682 41.6622 124.608 43.3129C125.535 44.9346 126.809 46.2089 128.431 47.1356C130.053 48.0334 131.877 48.4822 133.904 48.4822ZM190.237 22.1576C193.799 22.1576 196.58 23.2002 198.578 25.2853C200.576 27.3414 201.575 30.3098 201.575 34.1905V53H195.928V34.4077C195.928 32.004 195.291 30.194 194.017 28.9777C192.771 27.7324 191.135 27.1098 189.108 27.1098C186.849 27.1098 185.039 27.7469 183.678 29.0211C182.346 30.2954 181.68 32.2502 181.68 34.8855V53H176.032V34.4077C176.032 31.975 175.439 30.1506 174.251 28.9342C173.093 27.7179 171.5 27.1098 169.473 27.1098C167.185 27.1098 165.346 27.7614 163.956 29.0646C162.595 30.3388 161.914 32.2791 161.914 34.8855V53H156.267V22.592H161.741V26.5885C162.667 25.1694 163.927 24.0834 165.52 23.3305C167.113 22.5486 168.952 22.1576 171.037 22.1576C173.18 22.1576 175.048 22.563 176.641 23.3739C178.233 24.1848 179.435 25.3287 180.246 26.8057C181.26 25.3287 182.635 24.1848 184.373 23.3739C186.139 22.563 188.094 22.1576 190.237 22.1576ZM222.713 22.1576C225.436 22.1576 227.81 22.6934 229.838 23.7649C231.865 24.8364 233.429 26.4292 234.529 28.5433C235.659 30.6284 236.223 33.1624 236.223 36.1453V53H230.576V45.1808H214.764V53H209.204V36.1453C209.204 33.1624 209.754 30.6284 210.854 28.5433C211.984 26.4292 213.562 24.8364 215.589 23.7649C217.617 22.6934 219.991 22.1576 222.713 22.1576ZM230.576 40.4458V35.624C230.576 32.8149 229.881 30.7008 228.491 29.2818C227.101 27.8338 225.161 27.1098 222.67 27.1098C220.179 27.1098 218.239 27.8338 216.849 29.2818C215.459 30.7008 214.764 32.8149 214.764 35.624V40.4458H230.576ZM244.123 22.592H257.416C260.659 22.592 263.541 23.2291 266.06 24.5034C268.58 25.7486 270.534 27.5297 271.925 29.8465C273.315 32.1343 274.01 34.7842 274.01 37.796C274.01 40.8078 273.315 43.4722 271.925 45.789C270.534 48.0768 268.58 49.8578 266.06 51.1321C263.541 52.3774 260.659 53 257.416 53H244.123V22.592ZM257.155 48.2216C259.385 48.2216 261.34 47.8017 263.019 46.9618C264.728 46.093 266.031 44.8767 266.929 43.3129C267.856 41.7201 268.319 39.8811 268.319 37.796C268.319 35.7109 267.856 33.8864 266.929 32.3226C266.031 30.7298 264.728 29.5134 263.019 28.6736C261.34 27.8048 259.385 27.3704 257.155 27.3704H249.77V48.2216H257.155Z" fill="#003566"/>
<circle cx="48.2911" cy="19.6026" r="13.8611" transform="rotate(-45 48.2911 19.6026)" fill="url(#paint0_linear_42_8882)"/>
<path d="M0.856559 35.6778C2.49687 40.5209 6.66249 44.0665 11.696 44.904C22.3116 46.8579 24.6472 48.9636 27.9838 59.3647C28.0058 59.4374 28.0299 59.5122 28.0541 59.5848C30.2311 66.0136 36.7298 69.9187 43.4124 68.8137C50.095 67.7088 54.9981 61.9184 55 55.1292C55.0019 48.3402 50.1019 42.547 43.4199 41.4384C32.8021 39.4845 30.4687 37.3787 27.1299 26.9776L27.0575 26.7576C25.5648 21.9415 21.5825 18.3168 16.6566 17.2906C11.7308 16.2644 6.6374 17.9985 3.35398 21.8196C0.0705662 25.6406 -0.885664 30.9468 0.856559 35.6778Z" fill="url(#paint1_linear_42_8882)"/>
<defs>
<linearGradient id="paint0_linear_42_8882" x1="26.3095" y1="-3.57227" x2="28.6757" y2="40.3909" gradientUnits="userSpaceOnUse">
<stop stop-color="#5E60CE"/>
<stop offset="0.441707" stop-color="#00C9FF"/>
<stop offset="1" stop-color="#92FE9D"/>
<stop offset="1" stop-color="#4AB6E1"/>
<stop offset="1" stop-color="#48BFE3"/>
<stop offset="1" stop-color="#92FE9D"/>
</linearGradient>
<linearGradient id="paint1_linear_42_8882" x1="-28.1205" y1="64.2295" x2="39.7774" y2="97.506" gradientUnits="userSpaceOnUse">
<stop stop-color="#5E60CE"/>
<stop offset="0.413593" stop-color="#00C9FF"/>
<stop offset="1" stop-color="#92FE9D"/>
<stop offset="1" stop-color="#4AB6E1"/>
<stop offset="1" stop-color="#48BFE3"/>
<stop offset="1" stop-color="#92FE9D"/>
</linearGradient>
</defs>
</svg>
