<svg width="136" height="41" viewBox="0 0 136 41" fill="none" xmlns="http://www.w3.org/2000/svg">
<g clip-path="url(#clip0_3_7771)">
<path d="M130.54 39.943H5.24003C2.48503 39.943 0.228027 37.713 0.228027 34.989V5.26596C0.228027 2.54396 2.48503 0.313965 5.24003 0.313965H130.54C133.295 0.313965 135.55 2.54396 135.55 5.26696V34.99C135.55 37.713 133.295 39.943 130.54 39.943Z" fill="black"/>
<path d="M130.54 1.10799C132.86 1.10799 134.748 2.97399 134.748 5.26799V34.988C134.748 37.283 132.86 39.148 130.538 39.148H5.24003C2.92003 39.148 1.03203 37.283 1.03203 34.988V5.26999C1.03203 2.97599 2.92003 1.10999 5.24003 1.10999H130.54M130.54 0.315988H5.24003C2.48503 0.313988 0.228027 2.54399 0.228027 5.26699V34.99C0.228027 37.713 2.48503 39.943 5.24003 39.943H130.54C133.295 39.943 135.55 37.713 135.55 34.989V5.26599C135.55 2.54299 133.295 0.312988 130.54 0.312988V0.315988Z" fill="#A6A6A6"/>
<path d="M47.7595 10.4624C47.7595 11.2897 47.5089 11.9522 47.0152 12.4464C46.4476 13.0321 45.7083 13.3256 44.8024 13.3256C43.9379 13.3256 43.1986 13.0284 42.5909 12.4365C41.9819 11.8358 41.6787 11.099 41.6787 10.2197C41.6787 9.34043 41.9819 8.60358 42.5896 8.00914C43.1948 7.4147 43.9341 7.11377 44.7999 7.11377C45.2309 7.11377 45.6419 7.20046 46.0341 7.36517C46.4225 7.52988 46.742 7.75279 46.9738 8.02772L46.4476 8.55033C46.0466 8.07973 45.4991 7.84939 44.7987 7.84939C44.1671 7.84939 43.6208 8.06735 43.1547 8.50574C42.6949 8.94786 42.4656 9.51877 42.4656 10.2197C42.4656 10.9206 42.6949 11.4953 43.1547 11.9374C43.6183 12.3708 44.1671 12.5937 44.7987 12.5937C45.469 12.5937 46.0328 12.3708 46.4777 11.9324C46.7709 11.6414 46.9375 11.2389 46.9814 10.7275H44.7987V10.0117H47.7106C47.7457 10.1665 47.7557 10.3163 47.7557 10.4612L47.7595 10.4624Z" fill="white" stroke="white" stroke-width="0.199308" stroke-miterlimit="10"/>
<path d="M52.3781 7.97916H49.6466V9.86155H52.1125V10.5798H49.6466V12.4622H52.3819V13.1904H48.8735V7.25098H52.3819V7.98164L52.3781 7.97916Z" fill="white" stroke="white" stroke-width="0.199308" stroke-miterlimit="10"/>
<path d="M55.6394 13.1904H54.865V7.97916H53.186V7.25098H57.3184V7.98164H55.6394V13.1904Z" fill="white" stroke="white" stroke-width="0.199308" stroke-miterlimit="10"/>
<path d="M60.3094 13.1904V7.25098H61.0812V13.1904H60.3081H60.3094Z" fill="white" stroke="white" stroke-width="0.199308" stroke-miterlimit="10"/>
<path d="M64.507 13.1904H63.7402V7.97916H62.0562V7.25098H66.191V7.98164H64.5083V13.1904H64.507Z" fill="white" stroke="white" stroke-width="0.199308" stroke-miterlimit="10"/>
<path d="M74.013 12.4253C73.4203 13.0272 72.6848 13.3268 71.8102 13.3268C70.9281 13.3268 70.1939 13.0272 69.6012 12.4265C69.0098 11.8284 68.7153 11.0928 68.7153 10.2221C68.7153 9.35154 69.0098 8.61593 69.6012 8.01777C70.1939 7.41591 70.9294 7.11621 71.809 7.11621C72.6785 7.11621 73.4128 7.41591 74.0055 8.02025C74.6019 8.62707 74.8951 9.35774 74.8951 10.2221C74.8951 11.0928 74.6019 11.8284 74.0105 12.4265L74.013 12.4253ZM70.1751 11.9299C70.6211 12.3733 71.1649 12.5962 71.8102 12.5962C72.4492 12.5962 72.9981 12.3733 73.4391 11.9274C73.8839 11.4841 74.1095 10.9119 74.1095 10.2209C74.1095 9.5274 73.8839 8.95773 73.4391 8.5119C72.9981 8.06855 72.4492 7.84564 71.8102 7.84564C71.1624 7.84564 70.6199 8.06855 70.1738 8.51438C69.729 8.95773 69.5035 9.52988 69.5035 10.2209C69.5035 10.9144 69.729 11.4841 70.1726 11.9299H70.1751Z" fill="white" stroke="white" stroke-width="0.199308" stroke-miterlimit="10"/>
<path d="M75.9839 13.1904V7.25098H76.9236L79.8469 11.8703H79.8807L79.8469 10.7284V7.25098H80.62V13.1904H79.813L76.7532 8.34326H76.7194L76.7532 9.49003V13.1904H75.9851H75.9839Z" fill="white" stroke="white" stroke-width="0.199308" stroke-miterlimit="10"/>
<path d="M68.5263 21.8646C66.1723 21.8646 64.2493 23.6346 64.2493 26.0786C64.2493 28.5016 66.1713 30.2906 68.5253 30.2906C70.8853 30.2906 72.8083 28.5006 72.8083 26.0776C72.8083 23.6336 70.8843 21.8626 68.5243 21.8626L68.5263 21.8646ZM68.5263 28.6326C67.2363 28.6326 66.1233 27.5786 66.1233 26.0786C66.1233 24.5586 67.2353 23.5226 68.5263 23.5226C69.8183 23.5226 70.9363 24.5576 70.9363 26.0776C70.9363 27.5776 69.8183 28.6306 68.5263 28.6306V28.6326ZM59.1933 21.8646C56.8333 21.8646 54.9153 23.6346 54.9153 26.0786C54.9153 28.5016 56.8333 30.2906 59.1933 30.2906C61.5513 30.2906 63.4713 28.5006 63.4713 26.0776C63.4713 23.6336 61.5513 21.8626 59.1943 21.8626L59.1933 21.8646ZM59.1933 28.6326C57.9003 28.6326 56.7853 27.5786 56.7853 26.0786C56.7853 24.5586 57.9003 23.5226 59.1933 23.5226C60.4853 23.5226 61.5963 24.5576 61.5963 26.0776C61.5963 27.5776 60.4863 28.6306 59.1933 28.6306V28.6326ZM48.0863 23.1556V24.9456H52.4133C52.2863 25.9476 51.9483 26.6826 51.4293 27.1956C50.7973 27.8156 49.8133 28.5026 48.0853 28.5026C45.4233 28.5026 43.3383 26.3786 43.3383 23.7466C43.3383 21.1146 45.4223 18.9906 48.0843 18.9906C49.5243 18.9906 50.5723 19.5486 51.3443 20.2686L52.6213 19.0066C51.5413 17.9866 50.1013 17.2026 48.0843 17.2026C44.4343 17.2026 41.3643 20.1386 41.3643 23.7476C41.3643 27.3576 44.4343 30.2926 48.0843 30.2926C50.0583 30.2926 51.5403 29.6526 52.7043 28.4546C53.8993 27.2746 54.2723 25.6146 54.2723 24.2746C54.2723 23.8586 54.2373 23.4766 54.1743 23.1566H48.0843L48.0863 23.1556ZM93.5023 24.5456C93.1503 23.6016 92.0643 21.8656 89.8523 21.8656C87.6583 21.8656 85.8323 23.5716 85.8323 26.0786C85.8323 28.4386 87.6393 30.2906 90.0623 30.2906C92.0203 30.2906 93.1503 29.1106 93.6153 28.4226L92.1623 27.4656C91.6773 28.1656 91.0163 28.6316 90.0623 28.6316C89.1123 28.6316 88.4323 28.2016 87.9973 27.3546L93.6993 25.0226L93.5013 24.5426L93.5023 24.5456ZM87.6883 25.9476C87.6383 24.3226 88.9653 23.4906 89.9153 23.4906C90.6593 23.4906 91.2913 23.8586 91.5013 24.3856L87.6893 25.9486L87.6883 25.9476ZM83.0543 30.0356H84.9283V17.6516H83.0543V30.0356ZM79.9843 22.8026H79.9213C79.5013 22.3096 78.6983 21.8646 77.6813 21.8646C75.5453 21.8646 73.5933 23.7166 73.5933 26.0926C73.5933 28.4526 75.5453 30.2926 77.6803 30.2926C78.6973 30.2926 79.5003 29.8426 79.9203 29.3346H79.9843V29.9386C79.9843 31.5486 79.1143 32.4146 77.7083 32.4146C76.5633 32.4146 75.8533 31.5976 75.5583 30.9096L73.9283 31.5836C74.3983 32.7006 75.6433 34.0736 77.7083 34.0736C79.9063 34.0736 81.7603 32.7966 81.7603 29.6876V22.1196H79.9843V22.8026ZM77.8403 28.6326C76.5483 28.6326 75.4673 27.5626 75.4673 26.0926C75.4673 24.6076 76.5473 23.5226 77.8403 23.5226C79.1133 23.5226 80.1173 24.6076 80.1173 26.0926C80.1173 27.5626 79.1133 28.6326 77.8403 28.6326ZM102.278 17.6526H97.7953V30.0356H99.6653V25.3426H102.278C104.354 25.3426 106.39 23.8576 106.39 21.4966C106.39 19.1366 104.35 17.6516 102.278 17.6516V17.6526ZM102.328 23.6206H99.6643V19.3746H102.327C103.723 19.3746 104.52 20.5206 104.52 21.4976C104.52 22.4556 103.723 23.6216 102.327 23.6216L102.328 23.6206ZM113.883 21.8406C112.533 21.8406 111.128 22.4306 110.55 23.7376L112.21 24.4246C112.566 23.7376 113.223 23.5146 113.917 23.5146C114.887 23.5146 115.871 24.0906 115.887 25.1076V25.2376C115.547 25.0446 114.823 24.7576 113.932 24.7576C112.145 24.7576 110.325 25.7306 110.325 27.5446C110.325 29.2046 111.788 30.2726 113.435 30.2726C114.692 30.2726 115.385 29.7126 115.822 29.0596H115.886V30.0156H117.691V25.2656C117.691 23.0696 116.033 21.8406 113.884 21.8406H113.883ZM113.658 28.6286C113.046 28.6286 112.194 28.3286 112.194 27.5786C112.194 26.6206 113.257 26.2526 114.177 26.2526C115 26.2526 115.387 26.4326 115.887 26.6686C115.739 27.8156 114.74 28.6286 113.657 28.6286H113.658ZM124.268 22.1126L122.121 27.4826H122.058L119.836 22.1126H117.82L121.157 29.6156L119.252 33.7896H121.206L126.349 22.1116H124.269L124.268 22.1126ZM107.418 30.0366H109.292V17.6516H107.418V30.0356V30.0366Z" fill="white"/>
<path d="M10.6887 7.78088C10.3943 8.08677 10.2251 8.56108 10.2251 9.17533V31.0853C10.2251 31.6996 10.3943 32.1751 10.6887 32.4785L10.7614 32.5454L23.1835 20.2727V19.983L10.7614 7.71029L10.6887 7.78212V7.78088Z" fill="url(#paint0_linear_3_7771)"/>
<path d="M27.318 24.3657L23.1831 20.2728V19.983L27.3242 15.89L27.417 15.9433L32.3199 18.7025C33.7195 19.4851 33.7195 20.7731 32.3199 21.5607L27.4182 24.3137L27.318 24.3657Z" fill="url(#paint1_linear_3_7771)"/>
<path d="M27.4184 24.3136L23.1833 20.1278L10.6885 32.4784C11.1521 32.9614 11.9114 33.0196 12.7735 32.5366L27.4184 24.3136Z" fill="url(#paint2_linear_3_7771)"/>
<path d="M27.4185 15.9426L12.771 7.71953C11.909 7.2415 11.1509 7.29847 10.686 7.78145L23.1834 20.1284L27.4185 15.9426Z" fill="url(#paint3_linear_3_7771)"/>
</g>
<defs>
<linearGradient id="paint0_linear_3_7771" x1="22.0809" y1="31.3132" x2="5.4546" y2="14.4922" gradientUnits="userSpaceOnUse">
<stop stop-color="#00A0FF"/>
<stop offset="0.007" stop-color="#00A1FF"/>
<stop offset="0.26" stop-color="#00BEFF"/>
<stop offset="0.512" stop-color="#00D2FF"/>
<stop offset="0.76" stop-color="#00DFFF"/>
<stop offset="1" stop-color="#00E3FF"/>
</linearGradient>
<linearGradient id="paint1_linear_3_7771" x1="34.1433" y1="20.1269" x2="9.88938" y2="20.1269" gradientUnits="userSpaceOnUse">
<stop stop-color="#FFE000"/>
<stop offset="0.409" stop-color="#FFBD00"/>
<stop offset="0.775" stop-color="#FFA500"/>
<stop offset="1" stop-color="#FF9C00"/>
</linearGradient>
<linearGradient id="paint2_linear_3_7771" x1="25.1149" y1="17.853" x2="2.56942" y2="-4.95784" gradientUnits="userSpaceOnUse">
<stop stop-color="#FF3A44"/>
<stop offset="1" stop-color="#C31162"/>
</linearGradient>
<linearGradient id="paint3_linear_3_7771" x1="7.54303" y1="39.7686" x2="17.6111" y2="29.582" gradientUnits="userSpaceOnUse">
<stop stop-color="#32A071"/>
<stop offset="0.069" stop-color="#2DA771"/>
<stop offset="0.476" stop-color="#15CF74"/>
<stop offset="0.801" stop-color="#06E775"/>
<stop offset="1" stop-color="#00F076"/>
</linearGradient>
<clipPath id="clip0_3_7771">
<rect width="135.716" height="40.019" fill="white"/>
</clipPath>
</defs>
</svg>
