<svg width="135" height="40" viewBox="0 0 135 40" fill="none" xmlns="http://www.w3.org/2000/svg">
<g clip-path="url(#clip0_3_7762)">
<path d="M130.197 40H4.73C2.12 40 0 37.872 0 35.267V4.727C0 2.12 2.122 0 4.73 0H130.197C132.803 0 135 2.12 135 4.726V35.266C135 37.872 132.803 40 130.197 40Z" fill="#A6A6A6"/>
<path d="M134.032 35.2681C134.032 37.3841 132.318 39.0981 130.198 39.0981H4.72814C2.61014 39.0981 0.890137 37.3841 0.890137 35.2681V4.72514C0.890137 2.61014 2.61014 0.890137 4.73014 0.890137H130.197C132.317 0.890137 134.031 2.61014 134.031 4.72514L134.033 35.2681H134.032Z" fill="black"/>
<path d="M30.1281 19.7838C30.0981 16.5608 32.7681 14.9938 32.8881 14.9198C31.3781 12.7168 29.0361 12.4158 28.2131 12.3918C26.2461 12.1848 24.3381 13.5688 23.3361 13.5688C22.3141 13.5688 20.7711 12.4108 19.1081 12.4448C16.9681 12.4778 14.9661 13.7168 13.8681 15.6408C11.6021 19.5638 13.2921 25.3288 15.4631 28.5008C16.5491 30.0528 17.8181 31.7868 19.4791 31.7258C21.1031 31.6588 21.7091 30.6898 23.6711 30.6898C25.6141 30.6898 26.1841 31.7268 27.8781 31.6878C29.6211 31.6598 30.7181 30.1278 31.7681 28.5608C33.0221 26.7808 33.5261 25.0288 33.5461 24.9388C33.5061 24.9248 30.1591 23.6488 30.1261 19.7848L30.1281 19.7838ZM26.9281 10.3058C27.8021 9.21282 28.4001 7.72582 28.2341 6.21582C26.9691 6.27282 25.3871 7.09182 24.4761 8.16082C23.6701 9.10382 22.9501 10.6478 23.1361 12.1008C24.5561 12.2058 26.0161 11.3828 26.9281 10.3068V10.3058Z" fill="white"/>
<path d="M53.6451 31.5039H51.3751L50.1301 27.5939H45.8061L44.6211 31.5039H42.4111L46.6951 18.1959H49.3411L53.6461 31.5039H53.6451ZM49.7551 25.9539L48.6301 22.4799C48.5101 22.1249 48.2881 21.2899 47.9601 19.9729H47.9201C47.7881 20.5389 47.5771 21.3749 47.2871 22.4799L46.1821 25.9549H49.7551V25.9539ZM64.6621 26.5879C64.6621 28.2199 64.2221 29.5099 63.3391 30.4579C62.5491 31.2999 61.5671 31.7209 60.3961 31.7209C59.1321 31.7209 58.2241 31.2679 57.6711 30.3609H57.6311V35.4149H55.5001V25.0669C55.5001 24.0409 55.4731 22.9869 55.4201 21.9069H57.2961L57.4161 23.4289H57.4561C58.1661 22.2819 59.2461 21.7089 60.6931 21.7089C61.8251 21.7089 62.7701 22.1569 63.5261 23.0519C64.2841 23.9479 64.6621 25.1259 64.6621 26.5869V26.5879ZM62.4901 26.6659C62.4901 25.7319 62.2801 24.9619 61.8581 24.3559C61.3981 23.7239 60.7781 23.4079 60.0021 23.4079C59.4761 23.4079 58.9981 23.5839 58.5721 23.9309C58.1421 24.2809 57.8621 24.7389 57.7321 25.3049C57.6661 25.5689 57.6321 25.7849 57.6321 25.9549V27.5549C57.6321 28.2529 57.8471 28.8419 58.2751 29.3229C58.7031 29.8039 59.2591 30.0429 59.9431 30.0429C60.7461 30.0429 61.3711 29.7329 61.8181 29.1159C62.2661 28.4959 62.4901 27.6809 62.4901 26.6659ZM75.7001 26.5879C75.7001 28.2199 75.2581 29.5099 74.3751 30.4579C73.5851 31.2999 72.6051 31.7209 71.4351 31.7209C70.1701 31.7209 69.2621 31.2679 68.7101 30.3609H68.6701V35.4149H66.5381V25.0669C66.5381 24.0409 66.5111 22.9869 66.4581 21.9069H68.3341L68.4541 23.4289H68.4941C69.2041 22.2819 70.2821 21.7089 71.7311 21.7089C72.8631 21.7089 73.8081 22.1569 74.5661 23.0519C75.3211 23.9479 75.7001 25.1259 75.7001 26.5869V26.5879ZM73.5271 26.6659C73.5271 25.7319 73.3171 24.9619 72.8941 24.3559C72.4341 23.7239 71.8161 23.4079 71.0391 23.4079C70.5111 23.4079 70.0341 23.5839 69.6061 23.9309C69.1781 24.2809 68.8991 24.7389 68.7681 25.3049C68.7021 25.5689 68.6681 25.7849 68.6681 25.9549V27.5549C68.6681 28.2529 68.8821 28.8419 69.3081 29.3229C69.7361 29.8029 70.2921 30.0429 70.9781 30.0429C71.7811 30.0429 72.4061 29.7329 72.8531 29.1159C73.3011 28.4959 73.5251 27.6809 73.5251 26.6659H73.5271ZM88.0401 27.7719C88.0401 28.9039 87.6461 29.8249 86.8571 30.5359C85.9901 31.3129 84.7831 31.7009 83.2321 31.7009C81.8001 31.7009 80.6521 31.4259 79.7821 30.8729L80.2771 29.0959C81.2131 29.6619 82.2401 29.9459 83.3591 29.9459C84.1611 29.9459 84.7861 29.7639 85.2351 29.4019C85.6821 29.0419 85.9051 28.5549 85.9051 27.9489C85.9051 27.4089 85.7211 26.9539 85.3521 26.5849C84.9851 26.2149 84.3721 25.8729 83.5161 25.5549C81.1861 24.6869 80.0221 23.4149 80.0221 21.7399C80.0221 20.6459 80.4301 19.7499 81.2471 19.0499C82.0611 18.3519 83.1471 18.0029 84.5051 18.0029C85.7151 18.0029 86.7221 18.2149 87.5251 18.6359L86.9921 20.3739C86.2421 19.9669 85.3941 19.7639 84.4451 19.7639C83.6951 19.7639 83.1091 19.9479 82.6891 20.3159C82.3341 20.6459 82.1561 21.0459 82.1561 21.5209C82.1561 22.0469 82.3591 22.4809 82.7661 22.8239C83.1221 23.1399 83.7661 23.4819 84.7031 23.8509C85.8481 24.3109 86.6891 24.8509 87.2301 25.4689C87.7701 26.0849 88.0401 26.8559 88.0401 27.7759V27.7719ZM95.0881 23.5079H92.7381V28.1679C92.7381 29.3519 93.1521 29.9439 93.9821 29.9439C94.3621 29.9439 94.6791 29.9109 94.9291 29.8439L94.9871 31.4639C94.5671 31.6209 94.0141 31.6999 93.3291 31.6999C92.4871 31.6999 91.8291 31.4429 91.3541 30.9299C90.8811 30.4159 90.6441 29.5539 90.6441 28.3429V23.5059H89.2441V21.9059H90.6441V20.1499L92.7371 19.5169V21.9069H95.0871V23.5069L95.0881 23.5079ZM105.69 26.6269C105.69 28.1019 105.27 29.3129 104.427 30.2599C103.544 31.2349 102.372 31.7199 100.911 31.7199C99.5041 31.7199 98.3831 31.2539 97.5471 30.3199C96.7111 29.3859 96.2931 28.2069 96.2931 26.7859C96.2931 25.2989 96.7231 24.0809 97.5861 23.1339C98.4461 22.1859 99.6091 21.7119 101.07 21.7119C102.477 21.7119 103.61 22.1789 104.465 23.1139C105.283 24.0209 105.691 25.1919 105.691 26.6269H105.69ZM103.48 26.6969C103.48 25.8109 103.29 25.0519 102.907 24.4189C102.46 23.6519 101.821 23.2689 100.993 23.2689C100.136 23.2689 99.4851 23.6529 99.0381 24.4189C98.6551 25.0519 98.4661 25.8229 98.4661 26.7349C98.4661 27.6199 98.6561 28.3789 99.0381 29.0109C99.4981 29.7769 100.143 30.1589 100.974 30.1589C101.788 30.1589 102.427 29.7689 102.888 28.9909C103.281 28.3459 103.478 27.5789 103.478 26.6949L103.48 26.6969ZM112.62 23.7829C112.41 23.7429 112.185 23.7229 111.95 23.7229C111.2 23.7229 110.62 24.0069 110.21 24.5729C109.856 25.0729 109.678 25.7059 109.678 26.4689V31.5029H107.548L107.568 24.9289C107.568 23.8229 107.54 22.8159 107.488 21.9089H109.344L109.422 23.7439H109.482C109.706 23.1139 110.062 22.6039 110.547 22.2239C111.022 21.8809 111.535 21.7099 112.087 21.7099C112.285 21.7099 112.463 21.7249 112.621 21.7499V23.7829H112.62ZM122.156 26.2519C122.156 26.6339 122.131 26.9559 122.078 27.2189H115.682C115.707 28.1659 116.016 28.8909 116.61 29.3909C117.15 29.8379 117.846 30.0609 118.702 30.0609C119.649 30.0609 120.512 29.9109 121.29 29.6079L121.624 31.0879C120.716 31.4829 119.644 31.6799 118.407 31.6799C116.919 31.6799 115.751 31.2419 114.901 30.3669C114.054 29.4909 113.629 28.3169 113.629 26.8419C113.629 25.3949 114.024 24.1899 114.815 23.2289C115.643 22.2029 116.762 21.6889 118.17 21.6889C119.552 21.6889 120.6 22.2029 121.31 23.2289C121.873 24.0439 122.156 25.0519 122.156 26.2489V26.2519ZM120.123 25.6989C120.137 25.0659 119.998 24.5189 119.709 24.0589C119.339 23.4659 118.772 23.1689 118.009 23.1689C117.312 23.1689 116.745 23.4589 116.312 24.0389C115.957 24.4989 115.746 25.0529 115.682 25.6969H120.122L120.123 25.6989Z" fill="white"/>
<path d="M49.0498 10.0102C49.0498 11.1862 48.6968 12.0722 47.9918 12.6672C47.3388 13.2172 46.4118 13.4912 45.2088 13.4912C44.6118 13.4912 44.1018 13.4662 43.6748 13.4142V6.98415C44.2318 6.89415 44.8318 6.84715 45.4798 6.84715C46.6258 6.84715 47.4898 7.09715 48.0698 7.59415C48.7228 8.15715 49.0498 8.96215 49.0498 10.0102ZM47.9448 10.0382C47.9448 9.27515 47.7428 8.69015 47.3388 8.28215C46.9338 7.87515 46.3438 7.67215 45.5668 7.67215C45.2368 7.67215 44.9568 7.69215 44.7228 7.73915V12.6272C44.8528 12.6472 45.0878 12.6572 45.4308 12.6572C46.2328 12.6572 46.8508 12.4332 47.2878 11.9872C47.7248 11.5412 47.9428 10.8912 47.9428 10.0372L47.9448 10.0382ZM54.9098 11.0372C54.9098 11.7622 54.7018 12.3572 54.2878 12.8222C53.8538 13.3022 53.2778 13.5402 52.5608 13.5402C51.8708 13.5402 51.3188 13.3102 50.9078 12.8502C50.4978 12.3922 50.2928 11.8132 50.2928 11.1152C50.2928 10.3852 50.5028 9.78515 50.9278 9.32115C51.3528 8.85715 51.9218 8.62415 52.6398 8.62415C53.3298 8.62415 53.8868 8.85415 54.3078 9.31215C54.7078 9.75915 54.9078 10.3352 54.9078 11.0392L54.9098 11.0372ZM53.8218 11.0712C53.8218 10.6372 53.7278 10.2642 53.5418 9.95315C53.3218 9.57715 53.0078 9.38915 52.6018 9.38915C52.1798 9.38915 51.8598 9.57715 51.6398 9.95315C51.4518 10.2632 51.3598 10.6432 51.3598 11.0912C51.3598 11.5262 51.4528 11.8992 51.6398 12.2112C51.8668 12.5862 52.1828 12.7742 52.5898 12.7742C52.9898 12.7742 53.3048 12.5842 53.5298 12.2002C53.7248 11.8822 53.8218 11.5062 53.8218 11.0702V11.0712ZM62.7648 8.72015L61.2898 13.4332H60.3298L59.7198 11.3862C59.5638 10.8762 59.4378 10.3662 59.3398 9.86315H59.3198C59.2298 10.3812 59.1038 10.8882 58.9418 11.3862L58.2918 13.4332H57.3218L55.9348 8.72015H57.0118L57.5448 10.9602C57.6748 11.4902 57.7798 11.9952 57.8648 12.4732H57.8848C57.9618 12.0792 58.0908 11.5772 58.2728 10.9702L58.9428 8.72015H59.7958L60.4358 10.9222C60.5918 11.4592 60.7178 11.9762 60.8158 12.4742H60.8438C60.9138 11.9892 61.0218 11.4722 61.1638 10.9222L61.7358 8.72015H62.7658H62.7648ZM68.1978 13.4332H67.1498V10.7332C67.1498 9.90115 66.8338 9.48515 66.1998 9.48515C65.8898 9.48515 65.6378 9.59915 65.4428 9.82815C65.2498 10.0582 65.1528 10.3282 65.1528 10.6362V13.4322H64.1028V10.0662C64.1028 9.65215 64.0908 9.20315 64.0658 8.71615H64.9858L65.0358 9.45415H65.0658C65.1858 9.22415 65.3688 9.03615 65.6078 8.88415C65.8918 8.70915 66.2098 8.62015 66.5578 8.62015C66.9978 8.62015 67.3638 8.76215 67.6548 9.04715C68.0168 9.39715 68.1978 9.91715 68.1978 10.6092V13.4322V13.4332ZM71.0878 13.4332H70.0398V6.55615H71.0878V13.4332ZM77.2578 11.0372C77.2578 11.7622 77.0508 12.3572 76.6378 12.8222C76.2028 13.3022 75.6278 13.5402 74.9098 13.5402C74.2168 13.5402 73.6658 13.3102 73.2558 12.8502C72.8458 12.3922 72.6408 11.8132 72.6408 11.1152C72.6408 10.3852 72.8528 9.78515 73.2768 9.32115C73.7008 8.85715 74.2708 8.62415 74.9868 8.62415C75.6808 8.62415 76.2368 8.85415 76.6568 9.31215C77.0568 9.75915 77.2588 10.3352 77.2588 11.0392L77.2578 11.0372ZM76.1698 11.0712C76.1698 10.6372 76.0758 10.2642 75.8898 9.95315C75.6698 9.57715 75.3558 9.38915 74.9498 9.38915C74.5278 9.38915 74.2078 9.57715 73.9898 9.95315C73.7998 10.2632 73.7078 10.6432 73.7078 11.0912C73.7078 11.5262 73.8018 11.8992 73.9878 12.2112C74.2158 12.5862 74.5318 12.7742 74.9398 12.7742C75.3398 12.7742 75.6528 12.5842 75.8798 12.2002C76.0738 11.8822 76.1698 11.5062 76.1698 11.0702V11.0712ZM82.3298 13.4332H81.3898L81.3098 12.8902H81.2818C80.9598 13.3232 80.5018 13.5402 79.9048 13.5402C79.4598 13.5402 79.0998 13.3972 78.8288 13.1132C78.5818 12.8552 78.4588 12.5332 78.4588 12.1532C78.4588 11.5772 78.6988 11.1382 79.1818 10.8332C79.6638 10.5302 80.3418 10.3812 81.2148 10.3882V10.3002C81.2148 9.68015 80.8888 9.37015 80.2348 9.37015C79.7708 9.37015 79.3608 9.48615 79.0068 9.71815L78.7938 9.03015C79.2318 8.76015 79.7738 8.62315 80.4108 8.62315C81.6428 8.62315 82.2608 9.27315 82.2608 10.5732V12.3092C82.2608 12.7792 82.2838 13.1542 82.3288 13.4322L82.3298 13.4332ZM81.2418 11.8132V11.0862C80.0858 11.0662 79.5078 11.3832 79.5078 12.0362C79.5078 12.2822 79.5738 12.4662 79.7078 12.5892C79.8438 12.7112 80.0158 12.7722 80.2208 12.7722C80.4508 12.7722 80.6668 12.6992 80.8628 12.5542C81.0598 12.4082 81.1808 12.2242 81.2258 11.9962C81.2358 11.9462 81.2428 11.8832 81.2428 11.8122L81.2418 11.8132ZM88.2848 13.4332H87.3548L87.3048 12.6762H87.2768C86.9798 13.2522 86.4738 13.5402 85.7628 13.5402C85.1948 13.5402 84.7228 13.3172 84.3468 12.8702C83.9708 12.4232 83.7848 11.8462 83.7848 11.1352C83.7848 10.3722 83.9878 9.75515 84.3948 9.28215C84.7908 8.84215 85.2748 8.62215 85.8508 8.62215C86.4848 8.62215 86.9278 8.83515 87.1808 9.26215H87.2008V6.55615H88.2488V12.1632C88.2488 12.6232 88.2608 13.0452 88.2858 13.4332H88.2848ZM87.1998 11.4452V10.6592C87.1998 10.5222 87.1898 10.4122 87.1698 10.3292C87.1098 10.0762 86.9838 9.86415 86.7898 9.69315C86.5958 9.52315 86.3598 9.43615 86.0898 9.43615C85.6998 9.43615 85.3928 9.59115 85.1678 9.90215C84.9448 10.2122 84.8318 10.6102 84.8318 11.0952C84.8318 11.5612 84.9388 11.9392 85.1538 12.2302C85.3808 12.5402 85.6868 12.6962 86.0698 12.6962C86.4138 12.6962 86.6898 12.5662 86.8978 12.3082C87.0998 12.0682 87.1978 11.7812 87.1978 11.4452H87.1998ZM97.2478 11.0372C97.2478 11.7622 97.0408 12.3572 96.6278 12.8222C96.1928 13.3022 95.6178 13.5402 94.8998 13.5402C94.2098 13.5402 93.6578 13.3102 93.2458 12.8502C92.8358 12.3922 92.6308 11.8132 92.6308 11.1152C92.6308 10.3852 92.8428 9.78515 93.2668 9.32115C93.6908 8.85715 94.2608 8.62415 94.9798 8.62415C95.6698 8.62415 96.2268 8.85415 96.6468 9.31215C97.0468 9.75915 97.2468 10.3352 97.2468 11.0392L97.2478 11.0372ZM96.1618 11.0712C96.1618 10.6372 96.0678 10.2642 95.8818 9.95315C95.6598 9.57715 95.3478 9.38915 94.9398 9.38915C94.5198 9.38915 94.1998 9.57715 93.9798 9.95315C93.7898 10.2632 93.6978 10.6432 93.6978 11.0912C93.6978 11.5262 93.7918 11.8992 93.9778 12.2112C94.2058 12.5862 94.5218 12.7742 94.9298 12.7742C95.3298 12.7742 95.6448 12.5842 95.8698 12.2002C96.0638 11.8822 96.1618 11.5062 96.1618 11.0702V11.0712ZM102.883 13.4332H101.836V10.7332C101.836 9.90115 101.52 9.48515 100.886 9.48515C100.574 9.48515 100.323 9.59915 100.129 9.82815C99.9348 10.0572 99.8368 10.3282 99.8368 10.6362V13.4322H98.7868V10.0662C98.7868 9.65215 98.7768 9.20315 98.7508 8.71615H99.6708L99.7208 9.45415H99.7488C99.8718 9.22415 100.054 9.03615 100.292 8.88415C100.577 8.70915 100.894 8.62015 101.242 8.62015C101.682 8.62015 102.048 8.76215 102.339 9.04715C102.702 9.39715 102.882 9.91715 102.882 10.6092V13.4322L102.883 13.4332ZM109.936 9.50415H108.782V11.7942C108.782 12.3762 108.987 12.6672 109.392 12.6672C109.582 12.6672 109.737 12.6512 109.86 12.6172L109.887 13.4132C109.68 13.4912 109.407 13.5302 109.073 13.5302C108.659 13.5302 108.337 13.4042 108.103 13.1522C107.87 12.9002 107.753 12.4762 107.753 11.8822V9.50315H107.065V8.72015H107.755V7.85515L108.781 7.54515V8.71815H109.936V9.50415ZM115.484 13.4332H114.434V10.7532C114.434 9.90815 114.119 9.48515 113.486 9.48515C113 9.48515 112.668 9.73015 112.486 10.2202C112.456 10.3232 112.436 10.4502 112.436 10.5972V13.4322H111.39V6.55615H112.437V9.39615H112.457C112.787 8.88015 113.26 8.62215 113.873 8.62215C114.307 8.62215 114.666 8.76415 114.951 9.04915C115.307 9.40315 115.485 9.93115 115.485 10.6292V13.4322L115.484 13.4332ZM121.207 10.8532C121.207 11.0412 121.193 11.1992 121.167 11.3282H118.025C118.039 11.7942 118.189 12.1482 118.48 12.3952C118.746 12.6152 119.09 12.7252 119.51 12.7252C119.974 12.7252 120.398 12.6512 120.78 12.5022L120.944 13.2302C120.497 13.4242 119.971 13.5202 119.362 13.5202C118.632 13.5202 118.057 13.3062 117.642 12.8762C117.222 12.4462 117.016 11.8692 117.016 11.1462C117.016 10.4342 117.209 9.84215 117.598 9.37015C118.004 8.86615 118.553 8.61415 119.246 8.61415C119.924 8.61415 120.439 8.86615 120.786 9.37015C121.068 9.77015 121.206 10.2652 121.206 10.8532H121.207ZM120.207 10.5832C120.215 10.2712 120.147 10.0032 120.004 9.77715C119.822 9.48715 119.544 9.34015 119.17 9.34015C118.828 9.34015 118.55 9.48215 118.336 9.76715C118.162 9.99415 118.059 10.2652 118.026 10.5822H120.206L120.207 10.5832Z" fill="white"/>
</g>
<defs>
<clipPath id="clip0_3_7762">
<rect width="135" height="40" fill="white"/>
</clipPath>
</defs>
</svg>
